<?xml version="1.0" encoding="utf-8"?>
<!-- Generator: Adobe Illustrator 19.0.0, SVG Export Plug-In . SVG Version: 6.00 Build 0)  -->
<svg version="1.1" xmlns="http://www.w3.org/2000/svg" xmlns:xlink="http://www.w3.org/1999/xlink" x="0px" y="0px"
	 viewBox="0 0 7836.3 655.4" style="enable-background:new 0 0 7836.3 655.4;" xml:space="preserve">
<style type="text/css">
	.st0{fill:#FFFFFF;}
</style>
<g id="_x30_">
	<g id="XMLID_17_">
		<path id="XMLID_33_" class="st0" d="M818.7,442.2c-0.3,11.3-1.6,26.1-7.7,50c-5.5,22-15.7,54.1-35,92c0,0-14.8-83.7-22.7-111.7
			c-2.4-8.6-13.9-49-27-77c-1-2.1-7.7-16.3-16.3-34.3c-3.5-7.4-6.5-13.4-8.3-17.3L654,268.4l-630,357L1.1,560c-0.4-1.4-1-4-0.3-7.1
			c0,0,0.4-1.6,1.2-3.2c2.9-5.6,13.2-11.1,14-11.5l399.5-226.3l0,0l0.5-0.3l-0.5,0.3v-25l0.1-0.2l169-110h-0.2L504.6,49.1l86.2-48.4
			l62.9,111l67.4,1.7l45.9,81l-30,17l48.7,109.9c5.8,10.2,12.9,24.3,19.3,41.9c2.6,7.1,6.1,16.9,9,30.3
			C818.9,416.1,818.9,434.3,818.7,442.2z"/>
		<g id="XMLID_32_">
		</g>
		<g id="XMLID_31_">
		</g>
		<g id="XMLID_30_">
		</g>
		<g id="XMLID_29_">
		</g>
		<g id="XMLID_28_">
		</g>
		<g id="XMLID_27_">
		</g>
		<g id="XMLID_26_">
		</g>
		<g id="XMLID_25_">
		</g>
		<g id="XMLID_24_">
		</g>
		<g id="XMLID_23_">
		</g>
		<g id="XMLID_22_">
		</g>
		<g id="XMLID_21_">
		</g>
		<g id="XMLID_20_">
		</g>
		<g id="XMLID_19_">
		</g>
		<g id="XMLID_18_">
		</g>
	</g>
</g>
<g id="_x31_">
	<g id="XMLID_3_">
		<path id="XMLID_85_" class="st0" d="M1144.5,490c2-27.1,2-136.7,2-149v-68.1c0-8.2-1-131.6-2-146.4c42,0,170.5-5.6,224.3-7.7
			l2,84.5l-112.6,2.6v78.8c11.3,0,45.6-3.1,102.9-4.6l1.5,80.9l-104.4-1v43.5c0,8.2,0.5,79.4,0.5,86.5H1144.5z"/>
		<path id="XMLID_87_" class="st0" d="M1542.8,288.3c0,69.6,3.1,99.3,21,118.8c9.7,10.2,21.5,14.3,35.8,14.3
			c16.4,0,29.2-6.7,37.9-18.9c12.8-17.9,13.3-34.3,13.3-133.1v-16.4c0-30.2-2-60.4-2.6-76.3H1761c0,9.7,0.5,42.5,0.5,76.8v20.5
			c0,83.5-5.6,134.1-40.4,174.1c-28.2,32.3-75.8,49.2-127.5,49.2c-37.9,0-97.3-5.6-132.1-54.8c-22.5-31.7-31.2-64-31.2-169.5v-23.6
			c0-20,0.5-56.3,0.5-66h114.7c-1.5,11.3-2.6,35.8-2.6,75.8V288.3z"/>
		<path id="XMLID_89_" class="st0" d="M2076.3,493.6c-16.4,2-33.3,3.6-55.3,3.6c-152.6,0-210.9-70.7-210.9-131.1
			c0-72.2,72.2-163.3,233-192l20.5,86c-95.2,15.9-134.1,54.3-134.1,94.7c0,33.8,35.3,57.9,97.3,57.9c18.9,0,33.8-1,45.1-2
			L2076.3,493.6z"/>
		<path id="XMLID_91_" class="st0" d="M2369.7,502.8c-6.7-7.7-78.3-100.9-114.7-149.5v8.7c0,33.8,1.5,123.9,2.6,132.6h-114.7
			c0.5-12.8,1.5-86.5,1.5-136.2v-46.1c0-37.9-1.5-125.4-1.5-135.7h114.7c-0.5,7.2-2.6,86-2.6,123.9v13.3
			c35.8-43.5,109.6-131.1,118.8-141.8l78.3,69.1c-18.4,17.4-68.1,66-93.2,90.6c16.9,17.4,80.4,78.8,99.3,97.3L2369.7,502.8z"/>
		<path id="XMLID_93_" class="st0" d="M2630.3,411.7c49.7,1.5,103.9-12.3,103.9-36.4c0-10.2-8.7-16.4-50.2-39.9
			c-32.3-18.4-69.6-44-69.6-87c0-57.3,76.3-118.8,205.8-130l13.8,85.5c-64,0-96.3,9.7-96.3,30.7c0,12.3,16.4,20,49.7,36.4
			c27.1,13.3,71.2,36.4,71.2,82.4c0,56.3-58.9,128-214.5,145.9L2630.3,411.7z"/>
		<path id="XMLID_95_" class="st0" d="M3380.4,215.6c-8.7,15.4-125.4,255.5-143.9,285.7h-6.7c-26.1-30.7-85-110.1-102.4-133.1
			c-29.7,38.9-85,115.7-107,143.9h-6.7c-18.9-32.8-111.1-251.9-133.6-301.6l100.9-35.3c15.9,50.2,49.7,154.6,56.8,174.1
			c7.2-12.8,46.1-69.6,88.6-134.1h6.7c41,58.4,75.3,103.9,93.2,126c8.7-21,47.1-136.7,56.8-161.8L3380.4,215.6z"/>
		<path id="XMLID_97_" class="st0" d="M3544.2,357.9c0,94.7-47.1,147.5-122.9,184.8l-53.8-79.4c28.7-14.3,66-31.2,66-106.5v-68.1
			c0-7.2-1.5-97.3-2.6-108h115.7c-1,8.2-2.6,56.8-2.6,109.1V357.9z"/>
		<path id="XMLID_99_" class="st0" d="M3685,490c0.5-11.3,1-73.2,1-120.3V259.6c-18.9,0-85.5,2-99.8,2.6v-80.4
			c21,2,131.6,3.6,136.7,3.6h40.4c8.7,0,110.6-1.5,133.1-3.6v80.4c-8.7-0.5-94.7-2.6-99.3-2.6v116.7c0,45.1,0.5,105,1.5,113.7H3685z
			"/>
		<path id="XMLID_101_" class="st0" d="M4039.8,288.3c0,69.6,3.1,99.3,21,118.8c9.7,10.2,21.5,14.3,35.8,14.3
			c16.4,0,29.2-6.7,37.9-18.9c12.8-17.9,13.3-34.3,13.3-133.1v-16.4c0-30.2-2-60.4-2.6-76.3H4258c0,9.7,0.5,42.5,0.5,76.8v20.5
			c0,83.5-5.6,134.1-40.4,174.1c-28.2,32.3-75.8,49.2-127.5,49.2c-37.9,0-97.3-5.6-132.1-54.8c-22.5-31.7-31.2-64-31.2-169.5v-23.6
			c0-20,0.5-56.3,0.5-66h114.7c-1.5,11.3-2.6,35.8-2.6,75.8V288.3z"/>
		<path id="XMLID_103_" class="st0" d="M4702.4,495.1c-18.4,0-203.3-5.1-229.9-5.1c1.5-27.1,1.5-136.7,1.5-148.5v-68.6
			c0-8.2-1-131.6-1.5-146.4c28.7,0,200.7-6.7,219.6-8.2l2,84.5c-18.9,0-99.3,2.6-108.5,2.6v66.6c10.2,0,69.1-2.6,91.6-4.6l1.5,81.9
			c-13.8,0-81.9-2-93.2-2v60.9c13.3,0,90.6,1,114.7-1L4702.4,495.1z"/>
		<path id="XMLID_105_" class="st0" d="M5120.2,219.2c-16.9,24.1-157.7,239.1-193,289.3h-9.7c-48.6-69.6-165.4-262.7-179.7-285.7
			l102.4-51.7l88.6,179.7c13.8-29.7,84-165.9,90.6-179.7L5120.2,219.2z"/>
		<path id="XMLID_107_" class="st0" d="M5374.1,494.6c-18.9,0-186.9-4.6-214-4.6c1-23,1-116.2,1-126.5v-57.9c0-7.2-1-112.1-1-124.9
			c29.2,0,185.3-6.1,204.8-7.7l2,74.8c-17.4,0-90.6,2.6-98.8,2.6v52.7c9.2,0,63-2,83.5-4.1l1,72.7c-12.3,0-74.2-1.5-84.5-1.5v47.1
			c11.8,0,82.4,1,104.4-1L5374.1,494.6z"/>
		<path id="XMLID_109_" class="st0" d="M5560,356.9c0,16.4,1,126.5,2,133.1h-110.1c2-10.2,1.5-113.2,1.5-122.4V297
			c0-13.3-1-107.5-2-116.2c65.5,0,130.6-0.5,175.1,5.1c68.6,8.7,106,34.8,106,74.8c0,36.4-21,64-58.4,87
			c13.8,14.8,81.4,77.3,93.7,91.1l-91.1,66l-108.5-157.7c24.1-11.8,51.2-33.3,51.2-65.5c0-20.5-13.3-37.4-59.4-37.9V356.9z"/>
		<path id="XMLID_111_" class="st0" d="M5881,490c0.5-10.2,2.6-56.3,2.6-62v-17.9c0-56.3-24.1-96.8-58.4-118.8
			c-18.4-11.8-37.4-15.4-52.2-19.5l35.8-99.3c31.2,8.7,64,23.6,88.1,45.6c16.9,16.4,33.3,40.4,44.5,74.2h3.6
			c10.2-29.2,28.7-53.8,50.7-73.7c22.5-20,52.2-37.4,88.6-47.1l29.2,99.8c-20.5,4.1-48.6,12.8-70.7,29.2
			c-27.6,21-48.6,58.9-48.6,108.5v27.1c0,6.1,1,45.1,2,53.8H5881z"/>
		<path id="XMLID_113_" class="st0" d="M6232.7,490c0.5-11.3,1-73.2,1-120.3V259.6c-18.9,0-85.5,2-99.8,2.6v-80.4
			c21,2,131.6,3.6,136.7,3.6h40.4c8.7,0,110.6-1.5,133.1-3.6v80.4c-8.7-0.5-94.7-2.6-99.3-2.6v116.7c0,45.1,0.5,105,1.5,113.7
			H6232.7z"/>
		<path id="XMLID_115_" class="st0" d="M6491.3,490c0.5-18.9,1-120.8,1-132.1v-47.1c0-7.7-1-119.3-2-130h115.2
			c-1,8.2-2.6,92.2-2.6,99.8V296l112.1-8.2v-16.4c0-7.2-1-80.9-2-90.6h114.7c-0.5,10.8-2,132.6-2,142.8v43.5c0,5.6,1,114.7,2,122.9
			H6713c0.5-14.8,2-85.5,2-93.7v-30.2l-112.1,8.2v12.8c0,20,1.5,92.7,2,102.9H6491.3z"/>
		<path id="XMLID_117_" class="st0" d="M7032.4,358.4c0,43.5,1.5,121.3,2,131.6h-113.7c0.5-18.9,1-120.8,1-132.1v-47.1
			c0-7.7-1-119.3-1-130h113.7c-0.5,8.2-2,78.3-2,130.6V358.4z"/>
		<path id="XMLID_119_" class="st0" d="M7111.3,490c3.1-30.7,14.3-253.9,18.9-311.8l8.2-2.6c65.5,42.5,208.4,142.3,218.1,152.6
			c0-23.6-1-130.6-0.5-149.5l100.4,2c-6.1,63-16.9,253.4-19.5,315.9l-8.2,2c-47.1-28.2-198.1-137.7-217.1-153.1
			c0,22.5,0,134.7,0.5,147.5L7111.3,490z"/>
		<path id="XMLID_121_" class="st0" d="M7804,422.4c0,16.9,1,55.3,1,64.5c-13.8,3.1-57.3,10.2-105,10.2
			c-138.2,0-195.6-60.9-195.6-129.5c0-53.2,51.7-159.2,246.3-194.6l21.5,90.1c-66,7.7-150.5,39.9-150.5,99.8
			c0,36.9,33.3,53.2,64,56.3c5.1,0.5,9.7,0.5,14.3,0.5v-32.8c0-12.3-1-24.1-1-39.9h105.5c-0.5,20.5-0.5,30.7-0.5,43.5V422.4z"/>
	</g>
	<g id="XMLID_84_">
	</g>
	<g id="XMLID_124_">
	</g>
	<g id="XMLID_125_">
	</g>
	<g id="XMLID_126_">
	</g>
	<g id="XMLID_130_">
	</g>
	<g id="XMLID_131_">
	</g>
	<g id="XMLID_132_">
	</g>
	<g id="XMLID_133_">
	</g>
	<g id="XMLID_134_">
	</g>
	<g id="XMLID_135_">
	</g>
	<g id="XMLID_136_">
	</g>
	<g id="XMLID_137_">
	</g>
	<g id="XMLID_138_">
	</g>
	<g id="XMLID_139_">
	</g>
	<g id="XMLID_140_">
	</g>
</g>
</svg>
