<?xml version="1.0" encoding="utf-8"?>
<!-- Generator: Adobe Illustrator 19.0.0, SVG Export Plug-In . SVG Version: 6.00 Build 0)  -->
<svg version="1.1" id="_x30_" xmlns="http://www.w3.org/2000/svg" xmlns:xlink="http://www.w3.org/1999/xlink" x="0px" y="0px"
	 viewBox="-4390.5 549.6 818.3 624.7" style="enable-background:new -4390.5 549.6 818.3 624.7;" xml:space="preserve">
<style type="text/css">
	.st0{fill:#FFFFFF;}
</style>
<path id="XMLID_10_" class="st0" d="M-3572.3,991.1c-0.3,11.3-1.6,26.1-7.7,50c-5.5,22-15.7,54.1-35,92c0,0-14.8-83.7-22.7-111.7
	c-2.4-8.6-13.9-49-27-77c-1-2.1-7.7-16.3-16.3-34.3c-3.5-7.4-6.5-13.4-8.3-17.3l-47.7-75.5l-630,357l-22.9-65.4
	c-0.4-1.4-1-4-0.3-7.1c0,0,0.4-1.6,1.2-3.2c2.9-5.6,13.2-11.1,14-11.5l399.5-226.3l0,0l0.5-0.3l-0.5,0.3v-25l0.1-0.2l169-110h-0.2
	l-79.8-127.6l86.2-48.4l62.9,111l67.4,1.7l45.9,81l-30,17l48.7,109.9c5.8,10.2,12.9,24.3,19.3,41.9c2.6,7.1,6.1,16.9,9,30.3
	C-3572.1,965-3572.1,983.2-3572.3,991.1z"/>
<g id="XMLID_1_">
</g>
<g id="XMLID_2_">
</g>
<g id="XMLID_3_">
</g>
<g id="XMLID_4_">
</g>
<g id="XMLID_5_">
</g>
<g id="XMLID_6_">
</g>
<g id="XMLID_7_">
</g>
<g id="XMLID_8_">
</g>
<g id="XMLID_9_">
</g>
<g id="XMLID_11_">
</g>
<g id="XMLID_12_">
</g>
<g id="XMLID_13_">
</g>
<g id="XMLID_14_">
</g>
<g id="XMLID_15_">
</g>
<g id="XMLID_16_">
</g>
</svg>
